<?xml version="1.0" encoding="UTF-8"?>
<svg width="1000" height="1500" version="1.1" xmlns="http://www.w3.org/2000/svg">
  <g stroke="black" stroke-width="2" fill="none">
    <!-- Main outline of Tunisia -->
    <path d="M500,200 L520,180 L540,170 L560,180 L580,200 L600,220 L620,250 L640,300 
             L650,350 L660,400 L670,450 L680,500 L690,550 L700,600 L710,650 L720,700
             L730,750 L740,800 L750,850 L760,900 L770,950 L780,1000 L790,1050 L800,1100
             L810,1150 L820,1200 L830,1250 L840,1300 L850,1350 L860,1400
             L840,1420 L820,1440 L800,1460 L780,1480 L760,1500
             L740,1480 L720,1460 L700,1440 L680,1420 L660,1400 L640,1380 L620,1360
             L600,1340 L580,1320 L560,1300 L540,1280 L520,1260 L500,1240 L480,1220
             L460,1200 L440,1180 L420,1160 L400,1140 L380,1120 L360,1100 L340,1080
             L320,1060 L300,1040 L280,1020 L260,1000 L240,980 L220,960 L200,940
             L180,920 L160,900 L140,880 L120,860 L100,840
             L120,820 L140,800 L160,780 L180,760 L200,740 L220,720 L240,700
             L260,680 L280,660 L300,640 L320,620 L340,600 L360,580 L380,560
             L400,540 L420,520 L440,500 L460,480 L480,460 L500,440 L520,420
             L540,400 L560,380 L580,360 L600,340 L620,320 L640,300 L660,280
             L680,260 L700,240 L720,220 L740,200 Z"/>
    
    <!-- Internal governorate borders - simplified -->
    <path d="M500,200 L600,400"/>
    <path d="M600,400 L700,600"/>
    <path d="M700,600 L800,800"/>
    <path d="M400,400 L600,400"/>
    <path d="M300,600 L700,600"/>
    <path d="M200,800 L800,800"/>
    <!-- Add more internal borders as needed -->
  </g>
</svg> 